<svg width="189" height="140" viewBox="0 0 189 140" fill="none" xmlns="http://www.w3.org/2000/svg">
<path d="M47 70.3134C47 63.1689 52.515 58.3433 59.7848 58.3433C65.8638 58.3433 68.9347 61.9155 70.3135 65.1117L64.2971 67.8692C63.6704 65.9264 61.8529 64.6104 59.7848 64.485C56.4006 64.485 54.1444 67.0545 54.1444 70.3134C54.1444 73.5722 56.4006 76.1417 59.7848 76.1417C61.8529 76.0791 63.6077 74.7003 64.2971 72.7575L70.3761 75.5777C68.9974 78.7112 65.9265 82.3461 59.8475 82.3461C52.515 82.3461 47 77.4578 47 70.3134Z" fill="white"/>
<path d="M71.8176 81.9701V58.7193H85.9184C90.7441 58.7193 92.8122 61.9155 92.8122 64.6103C92.8122 67.4932 91.1201 69.436 88.864 69.9373C91.3708 70.3134 93.3136 72.6322 93.3136 75.6404C93.3136 78.8992 91.1201 81.9701 86.4825 81.9701H71.8176ZM85.6678 65.8637C85.6678 65.1117 85.0411 64.5477 84.289 64.5477C84.289 64.5477 84.289 64.5477 84.2263 64.5477H78.774V67.2425H84.2263C85.0411 67.2425 85.6678 66.6158 85.6678 65.8637ZM86.1691 74.6376C86.1691 73.8229 85.4798 73.1335 84.665 73.1335C84.6024 73.1335 84.6024 73.1335 84.5397 73.1335H78.8993V76.0791H84.5397C85.3544 76.2044 86.0438 75.6404 86.1691 74.8256C86.1691 74.763 86.1691 74.7003 86.1691 74.6376Z" fill="white"/>
<path d="M97.2618 73.4469C99.2673 75.3897 101.962 76.4551 104.72 76.4551C106.036 76.4551 107.289 76.0791 107.289 75.2017C107.289 72.9455 94.3163 75.2643 94.3163 66.0518C94.3163 62.1035 97.5752 58.3433 103.968 58.3433C107.54 58.2179 111.049 59.4087 113.807 61.6021L110.047 66.6158C108.041 65.1744 105.66 64.3597 103.216 64.297C101.837 64.297 101.461 64.7357 101.461 65.3624C101.461 67.5559 114.371 65.6757 114.371 74.3243C114.371 79.4633 110.548 82.4088 104.344 82.4088C99.4553 82.3461 96.1338 80.9047 93.627 78.6486L97.2618 73.4469Z" fill="white"/>
<path d="M141.57 70C142.009 77.2698 136.494 83.4742 129.224 83.9755C121.954 84.4142 115.75 78.8992 115.248 71.6294C115.186 71.0654 115.186 70.564 115.248 70C114.81 62.7302 120.325 56.5258 127.594 56.0245C134.864 55.5858 141.069 61.1008 141.57 68.3706C141.633 68.9346 141.633 69.436 141.57 70ZM116.251 70C119.447 76.7684 127.532 79.5886 134.3 76.3924C137.12 75.0763 139.376 72.8202 140.692 70C137.434 63.2316 129.286 60.4114 122.518 63.7329C119.823 65.049 117.567 67.2425 116.251 70ZM135.491 70C135.491 73.8856 132.357 77.0818 128.472 77.0818C124.586 77.0818 121.39 73.9482 121.39 70.0627C121.39 66.1771 124.523 62.9809 128.409 62.9809C132.357 62.9182 135.491 66.0518 135.491 70Z" fill="white"/>
</svg>
