<svg width="189" height="140" viewBox="0 0 189 140" fill="none" xmlns="http://www.w3.org/2000/svg">
<path d="M64.7883 69.9658C64.8893 68.4309 64.316 66.9279 63.2172 65.8469C62.1184 64.7658 60.6024 64.2131 59.0624 64.3321H56.9324V75.5994H58.9479C62.0971 75.5994 64.7883 73.9002 64.7883 69.9658ZM101.663 74.0143L86.3863 86L72.4266 75.052C70.2962 80.0283 65.3764 83.2466 59.9442 83.2174H48V56.7484H59.9442C65.3902 56.6951 70.3257 59.9327 72.4266 64.9366L86.3863 54L91.5167 58.0485L78.7594 68.0499L81.2101 69.9658L94.0132 59.953L99.1894 63.99L86.3978 74.0257L88.8485 75.9416L101.663 65.8717V56.7484H110.985V75.4854H120.249V83.2516H101.663V74.0143ZM131.964 75.4854H141.217V83.2516H122.643V56.7484H131.93L131.964 75.4854Z" fill="white"/>
</svg>
