<svg width="189" height="140" viewBox="0 0 189 140" fill="none" xmlns="http://www.w3.org/2000/svg">
<path d="M48.1174 61.2754C48.1174 61.2754 47.7598 63.4342 45.7117 64.262H39.9248C37.5515 64.2783 36.2998 66.2099 36.2998 68.2064C36.2998 70.2191 37.519 72.1183 39.9085 72.1183C42.298 72.1183 43.5172 70.2354 43.5172 68.2064C43.5172 67.1188 43.0945 66.0638 42.3468 65.2846H46.2481C46.6382 66.2099 46.8495 67.2 46.8495 68.2064C46.8495 70.3814 46.0042 72.3293 44.46 73.5954C46.3619 74.7154 46.8495 76.2574 46.8495 77.8806C46.8495 81.6626 43.9561 84 39.9735 84C36.2511 84 33.4064 81.8736 33.0488 78.5785L36.3974 78.2215C36.5924 79.8122 38.1529 80.8348 39.9735 80.8348C41.9242 80.8348 43.4522 79.7797 43.4522 77.8806C43.4522 75.9814 41.6803 75.1374 39.9735 75.1212L39.9085 75.1374C35.5846 75.1374 33 72.0371 33 68.2064C33 64.4081 35.6496 61.2754 39.876 61.2754H48.1174ZM55.221 61.1455C59.675 61.1455 62.4546 63.8887 61.9344 69.3588H51.5473C51.7586 70.9983 53.1891 72.1832 55.5136 72.1832C56.7327 72.1832 58.3258 71.7287 59.0735 70.9496L61.1867 73.0272C59.7887 74.4881 57.4967 75.1861 55.4648 75.1861C50.8808 75.1861 48.1499 72.3455 48.1499 68.0928C48.1499 64.051 50.8971 61.1455 55.221 61.1455ZM103.174 61.2754C107.417 61.2754 110.131 64.4081 110.148 68.2064C110.148 72.0371 107.531 75.1374 103.207 75.1374C98.8828 75.1374 96.2982 72.0371 96.2982 68.2064C96.2982 64.4081 98.9315 61.2754 103.174 61.2754ZM155.5 56V74.829H152.428L152.216 72.9948C151.192 74.5855 149.551 75.1212 147.925 75.1212C144.007 75.1212 141.065 72.5403 141.065 68.1739C141.065 63.5965 143.959 61.2267 147.844 61.2267C149.242 61.2267 151.436 61.9733 152.216 63.353V56H155.5ZM114.829 61.5513V68.5148C114.829 70.5275 115.935 72.0696 118.048 72.0696C120.063 72.0696 121.445 70.3652 121.445 68.3525H121.429V61.5513H124.696V74.8614H121.754L121.543 73.0597C120.177 74.407 118.909 75.0562 117.04 75.0562C113.854 75.0562 111.529 72.6539 111.529 68.531V61.5513H114.829ZM75.8978 61.2754C77.6046 60.8209 80.7418 60.8858 82.3186 61.7623C83.6353 62.4765 84.4806 63.84 84.5293 65.3333C84.5943 67.3461 84.5293 69.3751 84.5131 71.3878V74.7965H81.1157V73.5304C80.7256 73.8064 80.4167 74.0174 80.1079 74.2284C78.0435 75.5919 74.3698 75.1699 72.9068 73.3519C71.4763 71.5826 71.8827 68.1577 74.7111 67.3786C76.1416 66.989 78.4336 66.8267 79.8966 66.502C80.3029 66.4209 80.9857 66.3072 81.0182 65.9664C81.0832 65.2522 81.0344 65.0574 80.6118 64.6191C79.8478 63.84 78.4661 63.8075 77.4908 63.9699C76.1578 64.1809 75.6864 64.7165 75.4426 66.2748L72.3216 65.5606C72.4191 63.5154 73.7358 61.8597 75.8978 61.2754ZM66.8436 57.8017V61.5838H70.5173V64.4081H66.811V70.1542C66.811 71.4203 67.51 72.0371 68.5341 72.0371C69.0868 72.0209 69.6232 71.891 70.1434 71.6313L71.0537 74.4394C70.1921 74.7965 69.2656 74.9913 68.3228 75.0075C65.4293 75.1212 63.5437 73.4655 63.5437 70.1542V58.1588L66.8436 57.8017ZM93.486 61.1942C94.8514 61.1942 96.0218 61.5838 96.7371 62.3142L95.2578 65.171C94.5914 64.6029 94.1362 64.473 93.0471 64.473C91.324 64.473 89.731 65.382 89.731 67.833V74.829H86.4312V61.5351H89.4872L89.731 63.0771C90.7551 61.4377 92.1368 61.1942 93.486 61.1942ZM134.124 61.3403C137.262 61.3403 139.765 63.6777 139.781 67.8493V74.829H136.481V67.8817C136.481 65.869 135.376 64.327 133.263 64.327C131.247 64.327 129.865 66.0151 129.865 68.0441V74.829H126.598V61.5188H129.54L129.752 63.3368C131.101 62.022 132.45 61.3403 134.124 61.3403ZM81.0911 68.9191L81.0507 68.9206L80.8719 68.9368L80.4818 68.9855L78.9375 69.1478C78.0109 69.2452 77.0519 69.3588 76.1903 69.7322C75.914 69.8296 75.6702 70.0081 75.4751 70.2354C75.3126 70.4301 75.215 70.6736 75.1988 70.9171C75.1825 71.1768 75.2475 71.4365 75.3776 71.6638C75.6052 72.0371 76.0441 72.2481 76.4667 72.3455C77.0844 72.4754 77.7183 72.3617 78.3361 72.2481C78.8237 72.167 79.2951 72.0209 79.734 71.7774C79.8153 71.7287 79.8966 71.6638 80.0103 71.5826C80.433 71.258 80.7581 70.8035 80.9369 70.3003C81.0182 70.0893 81.0669 69.8783 81.0995 69.651C81.132 69.4238 81.1482 69.1965 81.1482 68.9693C81.132 68.9044 81.1157 68.9206 81.0507 68.9206L81.0911 68.9191ZM103.207 64.2783C100.833 64.2783 99.598 66.2099 99.598 68.2064C99.598 70.2354 100.801 72.1183 103.207 72.1183C105.596 72.1183 106.815 70.2354 106.815 68.2064C106.815 66.2261 105.417 64.2783 103.207 64.2783ZM148.136 64.3107C146.039 64.3107 144.365 65.7878 144.365 68.1901C144.365 70.5113 146.023 72.102 148.136 72.102C150.217 72.102 152.005 70.5762 151.989 68.1901V68.0441C151.956 65.9501 150.233 64.2783 148.136 64.3107ZM55.3185 64.0672C53.5467 64.0672 52.0837 64.9275 51.5961 66.6481H58.7809C58.5533 64.9275 57.2041 64.0672 55.3185 64.0672Z" fill="white"/>
</svg>
