<?xml version="1.0" encoding="UTF-8"?>
<svg width="85px" height="73px" viewBox="0 0 85 73" version="1.1" xmlns="http://www.w3.org/2000/svg" xmlns:xlink="http://www.w3.org/1999/xlink">
    <!-- Generator: Sketch 52.5 (67469) - http://www.bohemiancoding.com/sketch -->
    <title>Logo</title>
    <desc>Created with Sketch.</desc>
    <g id="CV" stroke="none" stroke-width="1" fill="none" fill-rule="evenodd">
        <g id="Logo">
            <g id="logo" transform="translate(18.352273, 0.000000)" fill-rule="nonzero">
                <path d="M18.3216742,43.7788957 L14.498227,53.7771281 L0,53.7771281 L22.2163658,4.3837502 L39.8374704,4.3837502 L42.331023,53.7771281 L28.8420911,53.7771281 L28.7589727,43.7788957 L18.3216742,43.7788957 Z M28.6046099,17.7694259 L28.3671287,17.7694259 L22.7506985,32.3155062 L28.6758543,32.3155062 L28.6046099,17.7694259 Z" id="Shape" fill="#E83544"></path>
                <ellipse id="Oval" fill="#E43844" cx="40.7755212" cy="6.02472621" rx="6.10326671" ry="6.02472621"></ellipse>
                <path d="M42.9722222,14.5226377 C38.9944122,14.5226377 35.764668,11.3344557 35.764668,7.40783456 C35.764668,3.48121339 38.9944122,0.293031431 42.9722222,0.293031431 C46.9500322,0.293031431 50.1797765,3.48121339 50.1797765,7.40783456 C50.1797765,11.3344557 46.9500322,14.5226377 42.9722222,14.5226377 Z M42.9722222,2.47318527 C40.2174404,2.47318527 37.961369,4.68850289 37.961369,7.41955582 C37.961369,10.1506088 40.2055663,12.3659264 42.9722222,12.3659264 C45.7388781,12.3659264 47.9830754,10.1506088 47.9830754,7.41955582 C47.9830754,4.68850289 45.7388781,2.47318527 42.9722222,2.47318527 Z" id="Shape" fill="#172F4C"></path>
                <g id="Group" transform="translate(1.068665, 5.977841)" fill="#172F4C">
                    <path d="M22.8931872,30.1939586 L31.5256286,30.1939586 L31.4306361,13.4794458 L29.3408016,13.4794458 L22.8931872,30.1939586 Z M26.0873093,28.0138048 L29.2576832,19.7854822 L29.3051795,28.0138048 L26.0873093,28.0138048 Z" id="Shape"></path>
                    <polygon id="Shape" points="42.6160004 0.0820488005 23.2375349 0.0820488005 0.0356221792 51.6555806 16.9917795 51.6555806 20.8152267 41.6573482 27.6071889 41.6573482 27.6071889 41.6104631 31.608747 41.6104631 31.5849989 39.4771943 19.2953471 39.4771943 15.4718998 49.487148 3.43160327 49.487148 24.6624221 2.26220264 40.5142919 2.26220264 42.9009779 49.487148 31.6681173 49.487148 31.6324952 44.7986451 29.4239201 44.7986451 29.4832904 51.6555806 45.2164195 51.6555806"></polygon>
                </g>
            </g>
            <path d="M5.48829545,70.4614001 L3.80568182,70.4614001 L3.19039773,72.0857319 L0.854829545,72.0857319 L4.43352273,64.0640317 L7.27136364,64.0640317 L7.67318182,72.0857319 L5.50085227,72.0857319 L5.48829545,70.4614001 Z M5.47573864,68.5996659 L5.46318182,66.2381373 L5.42551136,66.2381373 L4.52142045,68.5996659 L5.47573864,68.5996659 Z M11.9676136,63.9015985 C12.813106,63.9015985 13.4869886,64.1764854 13.9892614,64.7262593 L12.9847159,66.1881579 C12.7586932,65.8966112 12.4489583,65.7508378 12.0555114,65.7508378 C11.8127463,65.7508378 11.6223011,65.8070647 11.4841761,65.9195184 C11.3460511,66.0319721 11.2769886,66.175663 11.2769886,66.3505911 C11.2769886,66.617148 11.4234849,66.8503855 11.7164773,67.0503032 C12.1099242,67.3002005 12.4447727,67.5584276 12.7210227,67.8249846 C13.1646969,68.2414799 13.3865341,68.8037486 13.3865341,69.5117907 C13.3865341,70.2364926 13.1102841,70.8716479 12.5577841,71.4172569 C12.0052841,71.9628658 11.3146591,72.2356702 10.4859091,72.2356702 C9.53996219,72.2356702 8.765625,71.8691544 8.16289773,71.1361225 L9.23022727,69.5992547 C9.51484855,70.0740594 9.92503781,70.3114618 10.4607955,70.3114618 C10.7035605,70.3114618 10.902377,70.2448226 11.0572443,70.111544 C11.2121117,69.9782654 11.2895455,69.8199973 11.2895455,69.6367393 C11.2895455,69.3785121 11.1723485,69.1619346 10.9379545,68.9870066 C10.8626136,68.9286972 10.7014679,68.8120785 10.454517,68.6371505 C10.2075662,68.4622225 10.0171213,68.316449 9.88318182,68.1998304 C9.414394,67.7833351 9.18,67.2293962 9.18,66.538014 C9.18,65.8049821 9.44997159,65.1823216 9.98991477,64.6700324 C10.529858,64.1577431 11.1890909,63.9015985 11.9676136,63.9015985 Z M19.3007955,65.8258069 L17.2665909,65.8258069 L16.9903409,67.2252313 L19.0245455,67.2252313 L18.6980682,68.9120374 L16.6638636,68.9120374 L16.3876136,70.3239566 L18.4218182,70.3239566 L18.0827841,72.0857319 L13.8888068,72.0857319 L15.4458523,64.0640317 L19.6398295,64.0640317 L19.3007955,65.8258069 Z M20.7573864,64.0640317 L23.1431818,64.0640317 C23.8798485,64.0640317 24.5076895,64.2806092 25.0267045,64.7137644 C25.5457196,65.1469196 25.8052273,65.7466729 25.8052273,66.5130243 C25.8052273,67.3293551 25.5080492,68.0186549 24.9136932,68.5809236 C24.3193372,69.1431923 23.5282576,69.4243267 22.5404545,69.4243267 L21.8372727,69.4243267 L21.3224432,72.0857319 L19.2003409,72.0857319 L20.7573864,64.0640317 Z M22.578125,65.6133943 L22.1386364,67.9124486 L22.3521023,67.9124486 C22.7288068,67.9124486 23.034356,67.7812526 23.26875,67.5188605 C23.503144,67.2564684 23.6203409,66.9211898 23.6203409,66.5130243 C23.6203409,66.2381373 23.5429071,66.0194773 23.3880398,65.8570441 C23.2331724,65.6946109 23.0301705,65.6133943 22.7790341,65.6133943 L22.578125,65.6133943 Z M27.6008523,72.0857319 L25.4536364,72.0857319 L27.0106818,64.0640317 L29.1578977,64.0640317 L27.6008523,72.0857319 Z M35.5995455,66.5130243 C35.5995455,67.0294784 35.4467708,67.5105305 35.1412216,67.9561806 C34.8356724,68.4018307 34.4317614,68.7079548 33.9294886,68.8745528 L34.733125,72.0857319 L32.4226705,72.0857319 L31.9957386,69.2618935 L31.6315909,69.2618935 L31.0790909,72.0857319 L28.9067614,72.0857319 L30.4638068,64.0640317 L33.0379545,64.0640317 C33.7495076,64.0640317 34.3543276,64.2826917 34.8524148,64.7200118 C35.350502,65.1573319 35.5995455,65.7550027 35.5995455,66.5130243 Z M31.8952841,67.8624692 L32.0585227,67.8624692 C32.4938258,67.8624692 32.8244886,67.735438 33.0505114,67.4813759 C33.2765341,67.2273138 33.3895455,66.9045298 33.3895455,66.5130243 C33.3895455,66.2298074 33.3079261,66.009065 33.1446875,65.8507967 C32.9814489,65.6925284 32.7742614,65.6133943 32.523125,65.6133943 L32.3347727,65.6133943 L31.8952841,67.8624692 Z M43.8117045,72.0857319 L41.7398295,72.0857319 L42.6188068,66.9378495 L40.5092614,72.0857319 L38.7136364,72.0857319 L38.73875,66.9378495 L37.5709659,72.0857319 L35.4739773,72.0857319 L37.5709659,64.0640317 L40.258125,64.0640317 L40.3083523,68.3622636 L40.3209091,68.3622636 L42.0663068,64.0640317 L44.8413636,64.0640317 L43.8117045,72.0857319 Z M49.1357955,70.4614001 L47.4531818,70.4614001 L46.8378977,72.0857319 L44.5023295,72.0857319 L48.0810227,64.0640317 L50.9188636,64.0640317 L51.3206818,72.0857319 L49.1483523,72.0857319 L49.1357955,70.4614001 Z M49.1232386,68.5996659 L49.1106818,66.2381373 L49.0730114,66.2381373 L48.1689205,68.5996659 L49.1232386,68.5996659 Z M57.7748864,72.0857319 L55.6402273,72.0857319 L54.7110227,67.4876234 C54.7110227,67.7208608 54.6817235,67.9915827 54.623125,68.2997893 L53.8822727,72.0857319 L51.8857386,72.0857319 L53.4427841,64.0640317 L55.728125,64.0640317 L56.5317614,68.5371916 C56.5317614,68.3206141 56.5610605,68.0498921 56.6196591,67.7250257 L57.3353977,64.0640317 L59.3068182,64.0640317 L57.7748864,72.0857319 Z M60.2109091,69.8866365 C60.5039015,69.8866365 60.7445739,69.980348 60.9329261,70.1677709 C61.1212784,70.3551938 61.2154545,70.5946787 61.2154545,70.8862253 C61.2154545,71.2694011 61.0877935,71.5859375 60.8324716,71.8358347 C60.5771497,72.0857319 60.2611364,72.2106805 59.8844318,72.2106805 C59.5830682,72.2106805 59.3382102,72.1169691 59.149858,71.9295462 C58.9615057,71.7421233 58.8673295,71.5026384 58.8673295,71.2110917 C58.8673295,70.8195861 58.9949906,70.5009672 59.2503125,70.2552349 C59.5056344,70.0095026 59.8258333,69.8866365 60.2109091,69.8866365 Z M66.0875,63.9015985 C64.9992424,63.9015985 64.111894,64.3993103 63.4254545,65.3947343 C62.7390151,66.3901582 62.3957955,67.612572 62.3957955,69.0619757 C62.3957955,69.9949254 62.623911,70.7550293 63.080142,71.3422877 C63.536373,71.9295462 64.195606,72.2231754 65.0578409,72.2231754 C65.7275378,72.2231754 66.3072443,72.0211751 66.7969602,71.6171747 C67.2866761,71.2131742 67.6278031,70.657153 67.8203409,69.9491108 L66.2130682,69.1619346 C66.0121591,69.9699356 65.6982386,70.3739361 65.2713068,70.3739361 C64.8360037,70.3739361 64.6183523,69.9782654 64.6183523,69.1869243 C64.6183523,68.3206141 64.7690341,67.5313554 65.0703977,66.8191483 C65.3717614,66.1069413 65.7233523,65.7508378 66.1251705,65.7508378 C66.5939583,65.7508378 66.8032386,66.088199 66.7530114,66.7629215 L68.4607386,66.1506733 C68.4021401,65.4426312 68.1572821,64.890775 67.7261648,64.4951043 C67.2950474,64.0994337 66.7488258,63.9015985 66.0875,63.9015985 Z M72.2528977,63.9015985 C73.1988446,63.9015985 73.9103977,64.1952277 74.3875568,64.7824861 C74.8647159,65.3697446 75.1032955,66.1423433 75.1032955,67.1002827 C75.1032955,67.9582632 74.9672633,68.7704291 74.6951989,69.5367804 C74.4231344,70.3031318 74.0066667,70.9445347 73.4457955,71.4609889 C72.8849242,71.9774431 72.2361554,72.2356702 71.4994886,72.2356702 C70.5535417,72.2356702 69.8398958,71.9462059 69.3585511,71.3672774 C68.8772065,70.788349 68.6365341,70.0199151 68.6365341,69.0619757 C68.6365341,68.228985 68.7683807,67.4293139 69.0320739,66.6629626 C69.295767,65.8966112 69.710142,65.2447959 70.2751989,64.707517 C70.8402557,64.170238 71.4994886,63.9015985 72.2528977,63.9015985 Z M72.2528977,65.7508378 C71.8678219,65.7508378 71.539252,66.0819516 71.2671875,66.7441792 C70.995123,67.4064068 70.8590909,68.2206552 70.8590909,69.1869243 C70.8590909,69.9865954 71.0725568,70.3864309 71.4994886,70.3864309 C71.8761932,70.3864309 72.2005776,70.0573997 72.472642,69.399337 C72.7447065,68.7412743 72.8807386,67.9332734 72.8807386,66.9753341 C72.8807386,66.1590033 72.6714583,65.7508378 72.2528977,65.7508378 Z M83.5414773,72.0857319 L84.5711364,64.0640317 L81.7960795,64.0640317 L80.0506818,68.3622636 L80.038125,68.3622636 L79.9878977,64.0640317 L77.3007386,64.0640317 L75.20375,72.0857319 L77.3007386,72.0857319 L78.4685227,66.9378495 L78.4434091,72.0857319 L80.2390341,72.0857319 L82.3485795,66.9378495 L81.4696023,72.0857319 L83.5414773,72.0857319 Z" id="ASEPIRMAN.COM" fill="#172F4C"></path>
        </g>
    </g>
</svg>