<svg width="48" height="48" viewBox="0 0 48 48" fill="none" xmlns="http://www.w3.org/2000/svg">
<g clip-path="url(#clip0)">
<rect width="48" height="48" fill="white"/>
<path fill-rule="evenodd" clip-rule="evenodd" d="M6 6H42V42H6V6ZM10 10V38H38V10H10Z" fill="#E8E8E8"/>
<path d="M4 38.5C4 37.1193 5.11929 36 6.5 36H9.5C10.8807 36 12 37.1193 12 38.5V41.5C12 42.8807 10.8807 44 9.5 44H6.5C5.11929 44 4 42.8807 4 41.5V38.5Z" fill="#C9C9C9"/>
<path d="M4 6.5C4 5.11929 5.11929 4 6.5 4H9.5C10.8807 4 12 5.11929 12 6.5V9.5C12 10.8807 10.8807 12 9.5 12H6.5C5.11929 12 4 10.8807 4 9.5V6.5Z" fill="#C9C9C9"/>
<path d="M36 38.5C36 37.1193 37.1193 36 38.5 36H41.5C42.8807 36 44 37.1193 44 38.5V41.5C44 42.8807 42.8807 44 41.5 44H38.5C37.1193 44 36 42.8807 36 41.5V38.5Z" fill="#C9C9C9"/>
<path d="M36 6.5C36 5.11929 37.1193 4 38.5 4H41.5C42.8807 4 44 5.11929 44 6.5V9.5C44 10.8807 42.8807 12 41.5 12H38.5C37.1193 12 36 10.8807 36 9.5V6.5Z" fill="#C9C9C9"/>
<path d="M12.1055 31.8398C13.0957 31.8314 13.7389 31.6579 14.0352 31.3193C14.3314 30.9723 14.4795 30.4561 14.4795 29.7705V17.4307C14.4795 16.7197 14.3102 16.2542 13.9717 16.0342C13.6331 15.8057 13.0322 15.6576 12.1689 15.5898V14.9297H18.7197L23.8359 26.9648H24.0518L29.1426 14.9297H35.6934V15.5898C34.8132 15.6576 34.2122 15.8226 33.8906 16.085C33.569 16.3389 33.4082 16.9694 33.4082 17.9766V29.4658C33.4082 30.4222 33.569 31.0485 33.8906 31.3447C34.2122 31.641 34.8132 31.806 35.6934 31.8398V32.5H27.0605V31.8398C27.8307 31.8145 28.4105 31.6875 28.7998 31.459C29.1891 31.222 29.3838 30.71 29.3838 29.9229V17.2148H29.1934L22.8203 32.5H22.1221L15.6855 17.5195H15.5713V29.2881C15.5713 30.1514 15.7321 30.7819 16.0537 31.1797C16.3753 31.5775 17.0863 31.7975 18.1865 31.8398V32.5H12.1055V31.8398Z" fill="#6B63DD"/>
</g>
<defs>
<clipPath id="clip0">
<rect width="48" height="48" fill="white"/>
</clipPath>
</defs>
</svg>
