<svg width="48" height="48" viewBox="0 0 48 48" fill="none" xmlns="http://www.w3.org/2000/svg">
<g clip-path="url(#clip0)">
<rect width="48" height="48" fill="white"/>
<path d="M11 18.5C11 14.3579 14.3579 11 18.5 11H35.5C39.6421 11 43 14.3579 43 18.5V35.5C43 39.6421 39.6421 43 35.5 43H18.5C14.3579 43 11 39.6421 11 35.5V18.5Z" fill="#E8E8E8"/>
<path d="M8.5 16C8.5 11.8579 11.8579 8.5 16 8.5H33C37.1421 8.5 40.5 11.8579 40.5 16V33C40.5 37.1421 37.1421 40.5 33 40.5H16C11.8579 40.5 8.5 37.1421 8.5 33V16Z" fill="#D9D9D9"/>
<path d="M6 13.5C6 9.35786 9.35786 6 13.5 6H30.5C34.6421 6 38 9.35786 38 13.5V30.5C38 34.6421 34.6421 38 30.5 38H13.5C9.35786 38 6 34.6421 6 30.5V13.5Z" fill="#FDE69A"/>
<path d="M17.7851 18.282C18.4931 17.4342 18.3798 16.1729 17.5319 15.4649C16.6841 14.7569 15.4229 14.8703 14.7149 15.7181L10.4649 20.8074C9.83649 21.5598 9.84616 22.6569 10.4877 23.3981L14.7377 28.3089C15.4605 29.1441 16.7236 29.2352 17.5588 28.5123C18.394 27.7895 18.4851 26.5264 17.7623 25.6912L14.625 22.0662L17.7851 18.282Z" fill="#6B63DD"/>
<path d="M26.2149 18.282C25.5069 17.4342 25.6202 16.1729 26.468 15.4649C27.3158 14.7569 28.5771 14.8703 29.2851 15.7181L33.5351 20.8074C34.1635 21.5598 34.1538 22.6569 33.5123 23.3981L29.2623 28.3089C28.5394 29.1441 27.2764 29.2352 26.4412 28.5123C25.606 27.7895 25.5149 26.5264 26.2377 25.6912L29.375 22.0662L26.2149 18.282Z" fill="#6B63DD"/>
</g>
<defs>
<clipPath id="clip0">
<rect width="48" height="48" fill="white"/>
</clipPath>
</defs>
</svg>
