<svg width="48" height="48" viewBox="0 0 48 48" fill="none" xmlns="http://www.w3.org/2000/svg">
<g clip-path="url(#clip0)">
<rect width="48" height="48" fill="white"/>
<path d="M22.9756 22.2406C22.715 21.4588 23.4587 20.7151 24.2405 20.9757L37.2409 25.3091C38.0531 25.5798 38.1717 26.6795 37.4359 27.1172L32.331 30.1543L29.12 35.4623C28.6787 36.1918 27.5853 36.0698 27.3157 35.2609L22.9756 22.2406Z" fill="#6B63DD"/>
<path fill-rule="evenodd" clip-rule="evenodd" d="M6 30.25C6 16.8571 16.8571 6 30.25 6H40V10H30.25C19.0662 10 10 19.0662 10 30.25V40H6V30.25Z" fill="#E8E8E8"/>
<path d="M4 36.5C4 35.1193 5.11929 34 6.5 34H9.5C10.8807 34 12 35.1193 12 36.5V39.5C12 40.8807 10.8807 42 9.5 42H6.5C5.11929 42 4 40.8807 4 39.5V36.5Z" fill="#D9D9D9"/>
<path d="M34 6.5C34 5.11929 35.1193 4 36.5 4H39.5C40.8807 4 42 5.11929 42 6.5V9.5C42 10.8807 40.8807 12 39.5 12H36.5C35.1193 12 34 10.8807 34 9.5V6.5Z" fill="#D9D9D9"/>
<path d="M10.7678 16.4246C9.79146 15.4483 9.79146 13.8654 10.7678 12.8891L12.8891 10.7678C13.8654 9.79146 15.4483 9.79146 16.4246 10.7678L18.5459 12.8891C19.5223 13.8654 19.5223 15.4483 18.5459 16.4246L16.4246 18.5459C15.4483 19.5223 13.8654 19.5223 12.8891 18.5459L10.7678 16.4246Z" fill="#6B63DD"/>
</g>
<defs>
<clipPath id="clip0">
<rect width="48" height="48" fill="white"/>
</clipPath>
</defs>
</svg>
