<svg width="48" height="48" viewBox="0 0 48 48" fill="none" xmlns="http://www.w3.org/2000/svg">
<rect width="48" height="48" fill="white"/>
<path d="M4 11.5C4 7.35786 7.35786 4 11.5 4H36.5C40.6421 4 44 7.35786 44 11.5V29.8333C44 33.9755 40.6421 37.3333 36.5 37.3333H11.5C7.35786 37.3333 4 33.9755 4 29.8333V11.5Z" fill="#FDE69A"/>
<path fill-rule="evenodd" clip-rule="evenodd" d="M12.8889 42C12.8889 40.8954 13.7843 40 14.8889 40H35.3333C36.4379 40 37.3333 40.8954 37.3333 42C37.3333 43.1046 36.4379 44 35.3333 44H14.8889C13.7843 44 12.8889 43.1046 12.8889 42Z" fill="#6B63DD"/>
<path d="M16.9289 18.3097C15.6272 17.0079 15.6272 14.8974 16.9289 13.5956C18.2307 12.2939 20.3412 12.2939 21.643 13.5956L29.3426 21.2952C29.9546 21.9072 30.3516 22.7012 30.474 23.558L30.8825 26.4178C30.9768 27.0778 30.4111 27.6435 29.7511 27.5492L26.8913 27.1406C26.0345 27.0182 25.2405 26.6213 24.6285 26.0093L16.9289 18.3097Z" fill="#6B63DD"/>
</svg>
