<svg width="48" height="48" viewBox="0 0 48 48" fill="none" xmlns="http://www.w3.org/2000/svg">
<rect width="48" height="48" fill="white"/>
<path d="M6.5 16.6179C5.80964 15.4222 6.21933 13.8932 7.41506 13.2029L20.8385 5.45288C22.0342 4.76253 23.5632 5.17221 24.2535 6.36795L36.7535 28.0186C37.4439 29.2143 37.0342 30.7433 35.8385 31.4336L22.4151 39.1836C21.2193 39.874 19.6904 39.4643 19 38.2686L6.5 16.6179Z" fill="#E8E8E8"/>
<path d="M12.2408 12.8971C11.8834 11.5634 12.6749 10.1925 14.0086 9.83519L28.9804 5.8235C30.3141 5.46614 31.6849 6.2576 32.0423 7.59126L38.5128 31.7394C38.8701 33.0731 38.0786 34.4439 36.745 34.8013L21.7731 38.813C20.4395 39.1703 19.0686 38.3789 18.7113 37.0452L12.2408 12.8971Z" fill="#56CCF2"/>
<path d="M18.8768 10.3183C18.8768 8.93759 19.9961 7.8183 21.3768 7.8183H36.8768C38.2575 7.8183 39.3768 8.93759 39.3768 10.3183V35.3183C39.3768 36.699 38.2575 37.8183 36.8768 37.8183H21.3768C19.9961 37.8183 18.8768 36.699 18.8768 35.3183V10.3183Z" fill="#FDE69A"/>
<path d="M28.8768 20.8182C28.8768 19.7137 29.7722 18.8182 30.8768 18.8182C31.9813 18.8182 32.8768 19.7137 32.8768 20.8182V27.8182H40.3768C41.7575 27.8182 42.8768 28.9375 42.8768 30.3182V41.5682C42.8768 42.949 41.7575 44.0682 40.3768 44.0682H32.1268V43.998C30.8257 43.7512 29.7477 42.8743 29.2222 41.6967L22.714 32.7267C22.3897 32.2796 22.4891 31.6543 22.9362 31.33L23.3409 31.0364C24.4584 30.2255 26.0217 30.4742 26.8325 31.5917L28.8768 34.4093V20.8182Z" fill="#6B63DD"/>
</svg>
