<svg width="80" height="80" viewBox="0 0 80 80" fill="none" xmlns="http://www.w3.org/2000/svg">
<rect width="80" height="80" rx="12" fill="#ED1C24"/>
<path fill-rule="evenodd" clip-rule="evenodd" d="M34.8896 40.8402C33.9697 40.3402 32.9697 40 31.9097 39.8402C31.3699 39.74 30.8298 39.7002 30.2698 39.7002C24.6899 39.7002 20.1699 44.2202 20.1699 49.8002C20.1699 55.36 24.6899 59.9002 30.2698 59.9002C33.9097 59.9002 37.0898 57.9602 38.8498 55.0602C39.3298 54.3202 39.69 53.52 39.9296 52.6802C40.21 51.76 40.3498 50.8002 40.3498 49.8002C40.3498 45.9002 38.1298 42.5 34.8896 40.8402ZM37.3896 52.6802C37.0298 53.5602 36.5098 54.38 35.8699 55.0602C34.4697 56.5602 32.4697 57.5 30.2698 57.5C26.0098 57.5 22.5698 54.0402 22.5698 49.8002C22.5698 45.9602 25.3699 42.8002 29.0298 42.2202C29.4297 42.14 29.8499 42.1002 30.2698 42.1002C31.0098 42.1002 31.73 42.2002 32.3896 42.4002C35.6099 43.3202 37.9498 46.2802 37.9498 49.8002C37.9498 50.8202 37.75 51.7802 37.3896 52.6802ZM30.4736 44.1204C30.4138 44.1002 30.3337 44.1002 30.2739 44.1002C29.6138 44.1002 29.0737 44.6402 29.0737 45.3002V45.7802V49.9002C29.0737 50.5602 29.6138 51.1002 30.2739 51.1002C30.9338 51.1002 31.4736 50.5602 31.4736 49.9002V45.3002C31.4736 44.7002 31.0337 44.2202 30.4736 44.1204ZM29.0737 54.3002C29.0737 53.6402 29.6138 53.1002 30.2739 53.1002C30.9338 53.1002 31.4736 53.6402 31.4736 54.3002C31.4736 54.5802 31.3738 54.8604 31.1938 55.0602C30.9736 55.3202 30.6538 55.5002 30.2739 55.5002C29.8938 55.5002 29.5737 55.3202 29.3538 55.0602C29.1738 54.8604 29.0737 54.5802 29.0737 54.3002Z" fill="#FF9EA2"/>
<path fill-rule="evenodd" clip-rule="evenodd" d="M47.71 37.78C50.15 36 51.7698 33.14 51.7698 29.88C51.7698 24.48 47.3698 20.1001 41.9698 20.1001C36.5698 20.1001 32.1899 24.48 32.1899 29.88C32.1899 33.14 33.7898 36 36.25 37.78C34.75 38.22 33.2698 38.92 31.9097 39.84C32.9697 40 33.9697 40.34 34.8896 40.84C36.4096 40.1 38.0098 39.66 39.5698 39.66H44.3896C50.5898 39.66 57.3896 46.46 57.4296 52.66L39.9296 52.68C39.69 53.52 39.3298 54.32 38.8498 55.06H57.4698C58.7698 55.06 59.8298 54 59.8298 52.7C59.8298 46.32 54.0498 39.62 47.71 37.78ZM41.9698 37.28C37.9096 37.28 34.5898 33.9601 34.5898 29.88C34.5898 25.8 37.9096 22.5 41.9698 22.5C46.0498 22.5 49.3698 25.8 49.3698 29.88C49.3698 33.9601 46.0498 37.28 41.9698 37.28Z" fill="white"/>
</svg>
