<svg width="80" height="80" viewBox="0 0 80 80" fill="none" xmlns="http://www.w3.org/2000/svg">
<rect width="80" height="80" rx="12" fill="#ED1C24"/>
<g clip-path="url(#clip0)">
<path fill-rule="evenodd" clip-rule="evenodd" d="M60.1719 59.0546H20L27.0547 41.8008H33.7129V44.1992H28.668L23.5742 56.6562H56.5977L51.5039 44.1992H46.4551V41.8008H53.1173L60.1719 59.0546Z" fill="#FF9EA2"/>
<path fill-rule="evenodd" clip-rule="evenodd" d="M40.0683 51.7264L38.9923 49.3458L38.9921 49.3454C38.7423 48.7906 32.8944 35.8056 31.9316 29.8535C31.4258 26.7051 32.4199 24.752 33.3437 23.668C34.8087 21.9473 37.2031 21 40.0859 21C42.9687 21 45.3633 21.9473 46.8281 23.668C47.7519 24.752 48.7461 26.7051 48.2403 29.8535C46.8281 36.4562 41.4277 48.795 41.1797 49.3458L40.1037 51.7264H43.5957C44.2579 51.7264 44.7949 52.2636 44.7949 52.9256C44.7949 53.5878 44.2579 54.1248 43.5957 54.1248H36.5763C35.9141 54.1248 35.3771 53.5878 35.3771 52.9256C35.3771 52.2636 35.9141 51.7264 36.5763 51.7264H40.0683ZM40.0859 23.3984C37.9493 23.3984 36.1583 24.0645 35.1699 25.2227C34.3027 26.2402 34.0117 27.6699 34.3027 29.4707C34.9687 33.6035 38.3203 41.75 40.0859 45.8614C41.8515 41.75 45.2031 33.6035 45.8691 29.4707C46.1601 27.6699 45.8691 26.2402 45.0019 25.2227C44.0137 24.0645 42.2227 23.3984 40.0859 23.3984ZM40.0859 31.3501C41.3197 31.3501 42.3199 30.3499 42.3199 29.1161C42.3199 27.8822 41.3197 26.882 40.0859 26.882C38.8521 26.882 37.8519 27.8822 37.8519 29.1161C37.8519 30.3499 38.8521 31.3501 40.0859 31.3501Z" fill="white"/>
<path fill-rule="evenodd" clip-rule="evenodd" d="M43.5957 54.125H36.5763C35.9141 54.125 35.3771 53.588 35.3771 52.9258C35.3771 52.2638 35.9141 51.7266 36.5763 51.7266H43.5957C44.2579 51.7266 44.7949 52.2638 44.7949 52.9258C44.7949 53.588 44.2579 54.125 43.5957 54.125Z" fill="#FF9EA2"/>
</g>
<defs>
<clipPath id="clip0">
<rect width="48" height="48" fill="white" transform="translate(16 16)"/>
</clipPath>
</defs>
</svg>
