<svg width="80" height="80" viewBox="0 0 80 80" fill="none" xmlns="http://www.w3.org/2000/svg">
<rect width="80" height="80" rx="12" fill="#ED1C24"/>
<path fill-rule="evenodd" clip-rule="evenodd" d="M41.2 39.9998C41.2 39.337 40.6628 38.7998 40 38.7998C39.3372 38.7998 38.8 39.337 38.8 39.9998V50.7596L35.1917 47.1512C34.723 46.6826 33.9632 46.6826 33.4946 47.1512C33.026 47.6198 33.026 48.3796 33.4946 48.8484L39.1514 54.5052C39.62 54.9738 40.3798 54.9738 40.8486 54.5052L46.5054 48.8484C46.974 48.3796 46.974 47.6198 46.5054 47.1512C46.0368 46.6826 45.277 46.6826 44.8084 47.1512L41.2 50.7596V39.9998Z" fill="#FF9EA2"/>
<path fill-rule="evenodd" clip-rule="evenodd" d="M44.816 23.3048C44.4108 23.2076 43.9664 23.1998 42.6862 23.1998H34C32.5801 23.1998 31.5873 23.2008 30.8137 23.264C30.0542 23.326 29.6122 23.4421 29.2748 23.614C28.5598 23.9783 27.9785 24.5597 27.6142 25.2747C27.4422 25.6121 27.3262 26.054 27.2641 26.8136C27.2009 27.5871 27.2 28.5799 27.2 29.9998V49.9998C27.2 51.4198 27.2009 52.4126 27.2641 53.186C27.3262 53.9456 27.4422 54.3876 27.6142 54.725C27.9785 55.44 28.5598 56.0214 29.2748 56.3856C29.6122 56.5576 30.0542 56.6736 30.8137 56.7356C31.5873 56.7989 32.5801 56.7998 34 56.7998H46C47.42 56.7998 48.4128 56.7989 49.1862 56.7356C49.9458 56.6736 50.3878 56.5576 50.7252 56.3856C51.4402 56.0214 52.0216 55.44 52.3858 54.725C52.5578 54.3876 52.6738 53.9456 52.7358 53.186C52.799 52.4126 52.8 51.4198 52.8 49.9998V33.3136C52.8 32.0335 52.7922 31.589 52.695 31.1838C52.602 30.7961 52.4484 30.4254 52.24 30.0854C52.0222 29.7301 51.7134 29.4104 50.8084 28.5052L47.4946 25.1915C46.5894 24.2864 46.2698 23.9776 45.9144 23.7598C45.5744 23.5515 45.2038 23.3979 44.816 23.3048ZM42.825 20.7998C43.9146 20.7995 44.6606 20.7993 45.3762 20.9712C46.009 21.123 46.6136 21.3735 47.1684 21.7135C47.796 22.0981 48.3234 22.6257 49.0936 23.3964L49.1916 23.4945L52.5054 26.8082L52.6034 26.9062V26.9062C53.3742 27.6765 53.9018 28.2038 54.2864 28.8314C54.6264 29.3862 54.8768 29.9909 55.0286 30.6236C55.2006 31.3393 55.2004 32.0852 55.2 33.1748V33.1749V33.3136V49.9998V50.0515C55.2 51.4079 55.2 52.4988 55.1278 53.3816C55.0538 54.2894 54.8972 55.0824 54.5242 55.8146C53.9298 56.9812 52.9814 57.9296 51.8148 58.524C51.0826 58.897 50.2896 59.0536 49.3818 59.1276C48.4988 59.1998 47.4078 59.1998 46.0514 59.1998H46H34H33.9485C32.5921 59.1998 31.5011 59.1998 30.6183 59.1276C29.7103 59.0536 28.9174 58.897 28.1852 58.524C27.0186 57.9296 26.0702 56.9812 25.4757 55.8146C25.1027 55.0824 24.9463 54.2894 24.8721 53.3816C24.8 52.4988 24.8 51.4079 24.8 50.0515V49.9998V29.9998V29.9483V29.9482C24.8 28.5919 24.8 27.5009 24.8721 26.6181C24.9463 25.7102 25.1027 24.9172 25.4757 24.1851C26.0702 23.0185 27.0186 22.07 28.1852 21.4756C28.9174 21.1026 29.7103 20.9461 30.6183 20.872C31.5011 20.7998 32.592 20.7998 33.9484 20.7998H34H42.6862L42.825 20.7998ZM30.8 27.9998C30.8 27.3371 31.3372 26.7998 32 26.7998H40C40.6628 26.7998 41.2 27.3371 41.2 27.9998C41.2 28.6626 40.6628 29.1998 40 29.1998H32C31.3372 29.1998 30.8 28.6626 30.8 27.9998ZM32 32.7998C31.3372 32.7998 30.8 33.3371 30.8 33.9998C30.8 34.6626 31.3372 35.1999 32 35.1999H46C46.6628 35.1999 47.2 34.6626 47.2 33.9998C47.2 33.3371 46.6628 32.7998 46 32.7998H32Z" fill="white"/>
</svg>
