<svg width="80" height="80" viewBox="0 0 80 80" fill="none" xmlns="http://www.w3.org/2000/svg">
<rect width="80" height="80" rx="12" fill="#ED1C24"/>
<g clip-path="url(#clip0)">
<path fill-rule="evenodd" clip-rule="evenodd" d="M52.2002 34.1992C52.2002 37.2426 51.0672 40.0212 49.2002 42.1366C47.0014 44.628 43.7842 46.1992 40.2002 46.1992C38.7976 46.1992 37.4514 45.9586 36.2002 45.5164C31.5394 43.869 28.2002 39.424 28.2002 34.1992C28.2002 30.0253 30.3312 26.3491 33.5646 24.1992C35.4652 22.9355 37.7468 22.1992 40.2002 22.1992C42.6536 22.1992 44.9352 22.9355 46.8358 24.1992C50.0692 26.3491 52.2002 30.0253 52.2002 34.1992Z" fill="#FF9EA2"/>
<path fill-rule="evenodd" clip-rule="evenodd" d="M52.2656 21.3689C51.8066 20.8908 51.0468 20.8754 50.5688 21.3344C50.0908 21.7935 50.0754 22.5531 50.5344 23.0311C53.2952 25.9063 55 29.8465 55 34.2C55 38.5534 53.2952 42.4936 50.5344 45.3688C50.0754 45.8468 50.0908 46.6066 50.5688 47.0656C51.0468 47.5246 51.8066 47.5092 52.2656 47.0312C55.4432 43.722 57.4 39.1908 57.4 34.2C57.4 29.2091 55.4432 24.678 52.2656 21.3689ZM45.36 26.3431C45.8332 25.8791 46.593 25.8867 47.057 26.3599C49.0362 28.3789 50.2586 31.1479 50.2586 34.2C50.2586 37.252 49.0362 40.021 47.057 42.04C46.593 42.5132 45.8332 42.5208 45.36 42.057C44.8866 41.593 44.8792 40.8332 45.343 40.36C46.9004 38.7714 47.8586 36.5988 47.8586 34.2C47.8586 31.8012 46.9004 29.6286 45.343 28.0401C44.8792 27.5668 44.8866 26.807 45.36 26.3431ZM41.4 38.0168C43.0228 37.5072 44.2 35.9911 44.2 34.2C44.2 31.9909 42.4092 30.2 40.2 30.2C37.9908 30.2 36.2 31.9909 36.2 34.2C36.2 35.9911 37.3772 37.5072 39 38.0168V49.6232L29.7791 57H24.2C23.5373 57 23 57.5372 23 58.2C23 58.8628 23.5373 59.4 24.2 59.4H30.1904H30.2111H50.1888H50.2096H56.2C56.8628 59.4 57.4 58.8628 57.4 58.2C57.4 57.5372 56.8628 57 56.2 57H50.621L41.4 49.6232V38.0168ZM40.2 51.7368L46.779 57H33.6209L40.2 51.7368ZM29.8312 21.3344C29.3531 20.8754 28.5935 20.8908 28.1344 21.3689C24.9569 24.678 23 29.2091 23 34.2C23 39.1908 24.9569 43.722 28.1344 47.0312C28.5935 47.5092 29.3531 47.5246 29.8312 47.0656C30.3092 46.6066 30.3246 45.8468 29.8656 45.3688C27.1048 42.4936 25.4 38.5534 25.4 34.2C25.4 29.8465 27.1048 25.9063 29.8656 23.0311C30.3246 22.5531 30.3092 21.7935 29.8312 21.3344ZM33.3431 26.3599C33.807 25.8867 34.5668 25.8791 35.0401 26.3431C35.5133 26.807 35.5209 27.5668 35.0569 28.0401C33.4997 29.6286 32.5414 31.8012 32.5414 34.2C32.5414 36.5988 33.4997 38.7714 35.0569 40.36C35.5209 40.8332 35.5133 41.593 35.0401 42.057C34.5668 42.5208 33.807 42.5132 33.3431 42.04C31.3639 40.021 30.1414 37.252 30.1414 34.2C30.1414 31.1479 31.3639 28.3789 33.3431 26.3599Z" fill="white"/>
</g>
<defs>
<clipPath id="clip0">
<rect width="48" height="48" fill="white" transform="translate(16 16)"/>
</clipPath>
</defs>
</svg>
