<svg width="80" height="80" viewBox="0 0 80 80" fill="none" xmlns="http://www.w3.org/2000/svg">
<rect width="80" height="80" rx="12" fill="#ED1C24"/>
<path fill-rule="evenodd" clip-rule="evenodd" d="M36.34 34.7498V37.4098H29.46V34.7498C29.46 34.0897 29.9998 33.5498 30.6599 33.5498H35.1399C35.8 33.5498 36.34 34.0897 36.34 34.7498ZM23.3203 51.5098H25.7202V54.3898H23.3203V51.5098ZM54.2802 51.5098H56.6802V54.3898H54.2802V51.5098ZM50.52 37.4098V34.7498C50.52 34.0897 50 33.5498 49.3404 33.5498H44.8602C44.2002 33.5498 43.6602 34.0897 43.6602 34.7498V37.4098H50.52Z" fill="#FF9EA2"/>
<path fill-rule="evenodd" clip-rule="evenodd" d="M56.7402 38.41V32.3899C56.7402 28.6499 53.7 25.6099 49.9798 25.6099H30.0199C26.2802 25.6099 23.2601 28.6499 23.2601 32.3899V38.41C21.36 39.57 20.1 41.63 20.1 44.01V51.51H59.9V44.01C59.9 41.63 58.62 39.57 56.7402 38.41ZM25.66 32.3899C25.66 29.9699 27.6 28.0099 30.0199 28.0099H49.9798C52.38 28.0099 54.3402 29.9699 54.3402 32.3899V37.51C53.9998 37.45 53.66 37.41 53.2802 37.41H26.7001C26.3402 37.41 25.9999 37.45 25.66 37.51V32.3899ZM57.4998 49.11H22.4999V44.01C22.4999 41.69 24.38 39.81 26.7001 39.81H53.2802C55.62 39.81 57.4998 41.69 57.4998 44.01V49.11Z" fill="white"/>
<path fill-rule="evenodd" clip-rule="evenodd" d="M23.3203 51.5098H25.7202V52.3898H23.3203V51.5098ZM54.2802 51.5098H56.6802V52.3898H54.2802V51.5098Z" fill="black" fill-opacity="0.3"/>
</svg>
