<svg width="25" height="24" viewBox="0 0 25 24" fill="none" xmlns="http://www.w3.org/2000/svg">
<path fill-rule="evenodd" clip-rule="evenodd" d="M12.5 7C9.73858 7 7.5 9.23858 7.5 12C7.5 14.7614 9.73858 17 12.5 17C15.2614 17 17.5 14.7614 17.5 12C17.5 9.23858 15.2614 7 12.5 7ZM9.5 12C9.5 13.6569 10.8431 15 12.5 15C14.1569 15 15.5 13.6569 15.5 12C15.5 10.3431 14.1569 9 12.5 9C10.8431 9 9.5 10.3431 9.5 12Z" fill="#0E0E0E"/>
<path d="M18.5 5C17.9477 5 17.5 5.44772 17.5 6C17.5 6.55228 17.9477 7 18.5 7C19.0523 7 19.5 6.55228 19.5 6C19.5 5.44772 19.0523 5 18.5 5Z" fill="#0E0E0E"/>
<path fill-rule="evenodd" clip-rule="evenodd" d="M5.5 1C3.29086 1 1.5 2.79086 1.5 5V19C1.5 21.2091 3.29086 23 5.5 23H19.5C21.7091 23 23.5 21.2091 23.5 19V5C23.5 2.79086 21.7091 1 19.5 1H5.5ZM19.5 3H5.5C4.39543 3 3.5 3.89543 3.5 5V19C3.5 20.1046 4.39543 21 5.5 21H19.5C20.6046 21 21.5 20.1046 21.5 19V5C21.5 3.89543 20.6046 3 19.5 3Z" fill="#0E0E0E"/>
</svg>
