<svg width="25" height="24" viewBox="0 0 25 24" fill="none" xmlns="http://www.w3.org/2000/svg">
<path fill-rule="evenodd" clip-rule="evenodd" d="M3.50977 5.83789C3.50977 5.28561 3.95748 4.83789 4.50977 4.83789H20.5C21.0523 4.83789 21.5 5.28561 21.5 5.83789V17.1621C21.5 18.2667 20.6046 19.1621 19.5 19.1621H5.5C4.39543 19.1621 3.5 18.2667 3.5 17.1621V6.16211C3.5 6.11449 3.50333 6.06765 3.50977 6.0218V5.83789ZM5.5 8.06165V17.1621H19.5V8.06199L14.6215 12.9405C13.4499 14.1121 11.5504 14.1121 10.3789 12.9405L5.5 8.06165ZM7.07232 6.80554H17.928L13.2073 11.5263C12.8168 11.9168 12.1836 11.9168 11.7931 11.5263L7.07232 6.80554Z" fill="#212121"/>
</svg>
