<svg width="24" height="24" viewBox="0 0 24 24" fill="none" xmlns="http://www.w3.org/2000/svg">
<path fill-rule="evenodd" clip-rule="evenodd" d="M16.8693 15.4577C19.313 12.3193 19.0923 7.77859 16.2071 4.89341C13.0829 1.76921 8.0176 1.76921 4.89341 4.89341C1.76921 8.0176 1.76921 13.0829 4.89341 16.2071C7.77859 19.0923 12.3193 19.313 15.4577 16.8693C15.4713 16.8846 15.4854 16.8996 15.5 16.9142L19.7427 21.1569C20.1332 21.5474 20.7663 21.5474 21.1569 21.1569C21.5474 20.7663 21.5474 20.1332 21.1569 19.7427L16.9142 15.5C16.8996 15.4854 16.8846 15.4713 16.8693 15.4577ZM14.7929 6.30762C17.136 8.65077 17.136 12.4498 14.7929 14.7929C12.4498 17.136 8.65077 17.136 6.30762 14.7929C3.96448 12.4498 3.96448 8.65077 6.30762 6.30762C8.65077 3.96448 12.4498 3.96448 14.7929 6.30762Z" fill="white"/>
</svg>
