<svg width="25" height="24" viewBox="0 0 25 24" fill="none" xmlns="http://www.w3.org/2000/svg">
<g clip-path="url(#clip0)">
<path fill-rule="evenodd" clip-rule="evenodd" d="M12.5 4.27002C12.5 3.27002 12.4999 3.27002 12.4999 3.27002H12.4996H12.4985L12.4945 3.27002L12.4791 3.27003L12.4201 3.27013C12.3685 3.27025 12.2929 3.27048 12.1963 3.27093C12.0031 3.27184 11.7256 3.27365 11.3874 3.27726C10.7114 3.2845 9.79102 3.29897 8.8153 3.32796C7.84117 3.35691 6.8039 3.40056 5.89663 3.46673C5.01733 3.53087 4.17529 3.62125 3.64164 3.76397L3.62777 3.76779C2.98768 3.94888 2.40671 4.29568 1.94355 4.77317C1.48039 5.25065 1.15144 5.84191 0.989925 6.48721C0.984515 6.50883 0.979828 6.53062 0.975874 6.55255C0.650565 8.35645 0.49127 10.1864 0.499984 12.0194C0.488734 13.8661 0.648042 15.71 0.975881 17.5275C0.981739 17.56 0.989202 17.5922 0.998241 17.6239C1.17631 18.2492 1.51263 18.8179 1.97471 19.2753C2.43679 19.7326 3.00901 20.063 3.63608 20.2346L3.63608 20.2346L3.64164 20.2361C4.17529 20.3788 5.01733 20.4692 5.89663 20.5333C6.8039 20.5995 7.84117 20.6431 8.8153 20.6721C9.79102 20.7011 10.7114 20.7155 11.3874 20.7228C11.7256 20.7264 12.0031 20.7282 12.1963 20.7291C12.2929 20.7296 12.3685 20.7298 12.4201 20.7299L12.4791 20.73L12.4945 20.73L12.4985 20.73H12.4996H12.4999C12.4999 20.73 12.5 20.73 12.5 19.73C12.5 20.73 12.5001 20.73 12.5001 20.73H12.5004H12.5015L12.5055 20.73L12.5209 20.73L12.5799 20.7299C12.6315 20.7298 12.7071 20.7296 12.8037 20.7291C12.9969 20.7282 13.2744 20.7264 13.6126 20.7228C14.2886 20.7155 15.209 20.7011 16.1847 20.6721C17.1588 20.6431 18.1961 20.5995 19.1034 20.5333C19.9827 20.4692 20.8247 20.3788 21.3584 20.2361L21.3722 20.2323C22.0123 20.0512 22.5933 19.7044 23.0564 19.2269C23.5196 18.7494 23.8486 18.1581 24.0101 17.5128C24.0155 17.4912 24.0202 17.4694 24.0241 17.4475C24.347 15.6569 24.5063 13.8407 24.5 12.0214C24.5113 10.1743 24.352 8.33023 24.0241 6.51251L23.04 6.69002L24.0101 6.44721C23.8486 5.80191 23.5196 5.21065 23.0564 4.73317C22.5933 4.25568 22.0123 3.90888 21.3722 3.72779C21.3606 3.7245 21.3489 3.72143 21.3372 3.71856C20.8115 3.59019 19.9767 3.508 19.0971 3.44942C18.1916 3.38911 17.1557 3.3493 16.1821 3.32289C15.2071 3.29643 14.2873 3.28323 13.6116 3.27663C13.2736 3.27333 12.9963 3.27168 12.8033 3.27085C12.7067 3.27044 12.6312 3.27023 12.5797 3.27012L12.5208 3.27003L12.5055 3.27002H12.5015H12.5004H12.5001C12.5001 3.27002 12.5 3.27002 12.5 4.27002ZM12.5 4.27002L12.5 5.27002H12.5002H12.501L12.5045 5.27002L12.5188 5.27003L12.5757 5.27012L12.7947 5.27083C12.9846 5.27164 13.2582 5.27327 13.5921 5.27653C14.2602 5.28306 15.1679 5.29611 16.1279 5.32215C17.0893 5.34824 18.0959 5.38718 18.9642 5.445C19.8426 5.5035 20.505 5.57722 20.8449 5.65719C21.1396 5.74375 21.4069 5.90511 21.6209 6.12568C21.832 6.34335 21.9839 6.61122 22.0624 6.90379C22.3643 8.5901 22.5108 10.3006 22.5 12.0137H22.5L22.5 12.0236C22.5061 13.711 22.3596 15.3954 22.0624 17.0563C21.9839 17.3488 21.832 17.6167 21.6209 17.8344C21.4044 18.0575 21.1333 18.22 20.8347 18.3058C20.5059 18.3924 19.846 18.4738 18.9579 18.5386C18.0914 18.6018 17.0862 18.6444 16.1253 18.673C15.166 18.7015 14.2589 18.7157 13.5912 18.7229C13.2575 18.7265 12.984 18.7282 12.7943 18.7291C12.6994 18.7296 12.6255 18.7298 12.5755 18.7299L12.5187 18.73L12.5045 18.73L12.501 18.73H12.5002H12.5H12.4998H12.499L12.4955 18.73L12.4813 18.73L12.4245 18.7299C12.3745 18.7298 12.3006 18.7296 12.2057 18.7291C12.016 18.7282 11.7425 18.7265 11.4088 18.7229C10.7411 18.7157 9.83398 18.7015 8.8747 18.673C7.91383 18.6444 6.9086 18.6018 6.04212 18.5386C5.1502 18.4736 4.48846 18.3917 4.16114 18.3047C3.86694 18.2237 3.59849 18.0684 3.38158 17.8537C3.17453 17.6488 3.0211 17.3964 2.93447 17.1187C2.6347 15.4381 2.48926 13.7335 2.49998 12.0263H2.50004L2.49999 12.0151C2.49159 10.3148 2.63807 8.61739 2.93761 6.94377C3.0161 6.65121 3.16801 6.38334 3.37914 6.16568C3.59558 5.94255 3.86665 5.78002 4.16535 5.69421C4.49412 5.60762 5.15401 5.52621 6.04212 5.46143C6.9086 5.39823 7.91383 5.35563 8.8747 5.32708C9.83398 5.29857 10.7411 5.28429 11.4088 5.27715C11.7425 5.27358 12.016 5.2718 12.2057 5.27091C12.3006 5.27046 12.3745 5.27024 12.4245 5.27013L12.4813 5.27003L12.4955 5.27002L12.499 5.27002L12.4998 5.27002H12.5L12.5 4.27002ZM10.7443 7.88075C10.4347 7.70471 10.0549 7.70657 9.7471 7.88562C9.43929 8.06468 9.24992 8.39391 9.24992 8.75002V15.29C9.24992 15.6461 9.43929 15.9754 9.7471 16.1544C10.0549 16.3335 10.4347 16.3353 10.7443 16.1593L16.4943 12.8893C16.8068 12.7115 16.9999 12.3796 16.9999 12.02C16.9999 11.6604 16.8068 11.3285 16.4943 11.1508L10.7443 7.88075ZM13.977 12.02L11.2499 13.5709V10.4691L13.977 12.02Z" fill="#0E0E0E"/>
</g>
<defs>
<clipPath id="clip0">
<rect width="24" height="24" fill="white" transform="translate(0.5)"/>
</clipPath>
</defs>
</svg>
