<svg width="120" height="40" viewBox="0 0 120 40" fill="none" xmlns="http://www.w3.org/2000/svg">
<path d="M25.1609 9.20296C30.3279 9.20296 33.6976 12.8872 33.6976 18.5035V29.699C33.6976 30.7708 32.8287 31.6397 31.7569 31.6397H28.8988C27.827 31.6397 26.9581 30.7708 26.9581 29.699V19.0876C26.9581 16.8411 25.8798 15.4033 23.7231 15.4033C21.4766 15.4033 20.2186 16.9759 20.2186 19.6268V29.699C20.2186 30.7708 19.3497 31.6397 18.2779 31.6397H15.4197C14.3479 31.6397 13.479 30.7708 13.479 29.699V19.0876C13.479 16.8411 12.4007 15.4033 10.2441 15.4033C7.99757 15.4033 6.73952 16.9759 6.73952 19.6268V29.699C6.73952 30.7708 5.87065 31.6397 4.79884 31.6397H1.94068C0.868872 31.6397 0 30.7708 0 29.699V11.7727C0 10.7009 0.868872 9.83199 1.94068 9.83199H4.66294C5.50814 9.83199 6.25615 10.379 6.51233 11.1845L6.73952 11.8988C7.77292 10.3711 9.74984 9.20296 12.7602 9.20296C15.411 9.20296 17.388 10.2813 18.646 12.1684C19.9041 10.3711 21.9708 9.20296 25.1609 9.20296ZM40.5387 7.06656C38.615 7.06656 37.0054 5.45695 37.0054 3.53328C37.0054 1.60961 38.615 0 40.5387 0C42.4624 0 44.072 1.60961 44.072 3.53328C44.072 5.45695 42.4624 7.06656 40.5387 7.06656ZM37.0201 29.699L37.0019 11.2592C37.0008 10.1909 37.8634 9.32258 38.9317 9.31662L41.81 9.30055C42.8818 9.29457 43.7555 10.1586 43.7615 11.2304C43.7615 11.234 43.7616 11.2376 43.7616 11.2412V29.699C43.7616 30.7708 42.8927 31.6397 41.8209 31.6397H38.9627C37.8917 31.6378 37.0231 30.7701 37.0201 29.699ZM63.7709 29.5225C61.9578 30.7917 59.7506 31.5364 57.3694 31.5364C51.1977 31.5364 46.1944 26.5332 46.1944 20.3614C46.1944 14.1896 51.1977 9.18638 57.3694 9.18638C59.762 9.18638 61.9789 9.93825 63.7968 11.2186L63.8378 2.64762C63.8425 1.66179 64.5855 0.836132 65.5654 0.727931L69.0139 0.347143C69.7241 0.268719 70.3634 0.780892 70.4418 1.49111C70.447 1.53827 70.4497 1.58567 70.4497 1.63311V29.699C70.4497 30.7708 69.5808 31.6397 68.509 31.6397H65.5328C65.0156 31.6397 64.5482 31.3318 64.344 30.8566L63.7709 29.5225ZM90.1505 9.17463H94.3449C95.0595 9.17463 95.6387 9.75388 95.6387 10.4684C95.6387 10.6216 95.6115 10.7737 95.5583 10.9174L88.36 30.3725C88.0782 31.1341 87.352 31.6397 86.5399 31.6397H81.6042C80.7921 31.6397 80.0659 31.1341 79.7841 30.3725L72.5857 10.9174C72.3377 10.2472 72.68 9.50298 73.3501 9.25502C73.4938 9.20185 73.6459 9.17463 73.7991 9.17463H77.9935C78.8322 9.17463 79.576 9.71342 79.8375 10.5103L83.4574 21.544C83.5687 21.8834 83.9342 22.0683 84.2737 21.957C84.4692 21.8928 84.6225 21.7395 84.6867 21.544L88.3065 10.5103C88.568 9.71342 89.3118 9.17463 90.1505 9.17463ZM114.575 9.17463H118.959C119.495 9.17463 119.929 9.60907 119.929 10.145C119.929 10.2549 119.911 10.364 119.874 10.4676L112.647 30.9658C110.099 37.4673 105.571 40.0548 101.088 39.9991C100.933 39.9972 100.729 39.9941 100.478 39.99C100.125 39.9841 99.8418 39.6962 99.8418 39.3432V34.2998C99.8418 33.9555 100.111 33.6715 100.455 33.6538C100.712 33.6405 100.915 33.6322 101.064 33.6288C102.983 33.5859 104.608 32.9646 105.458 30.6063L97.2646 10.9666C96.9895 10.3071 97.301 9.54949 97.9605 9.27437C98.1183 9.20853 98.2876 9.17463 98.4586 9.17463H102.57C103.387 9.17463 104.116 9.68585 104.394 10.4535L108.918 22.9233L112.72 10.5454C112.97 9.73071 113.723 9.17463 114.575 9.17463ZM49.7911 20.9531C50.0931 24.8745 53.3707 27.9624 57.3694 27.9624C61.3666 27.9624 64.6432 24.877 64.9474 20.9579C64.9711 20.653 64.7431 20.3867 64.4383 20.3631C64.424 20.362 64.4097 20.3614 64.3954 20.3614H62.0456C61.7067 20.3614 61.4192 20.6103 61.3706 20.9457C61.0875 22.9018 59.4039 24.4045 57.3694 24.4045C55.3271 24.4045 53.6384 22.8901 53.3651 20.9229C53.3203 20.601 53.0451 20.3614 52.7201 20.3614H50.3391C50.0356 20.3614 49.7895 20.6075 49.7895 20.9109C49.7895 20.925 49.7901 20.9391 49.7911 20.9531Z" fill="white"/>
</svg>
