<svg width="69" height="28" viewBox="0 0 69 28" fill="none" xmlns="http://www.w3.org/2000/svg">
<path d="M4.68735 19.126C3.47402 19.126 2.53135 18.8367 1.85935 18.258C1.19668 17.67 0.842016 16.8767 0.795349 15.878H2.46135C2.49868 16.4473 2.70868 16.886 3.09135 17.194C3.48335 17.502 4.01535 17.656 4.68735 17.656C6.12468 17.656 6.84335 17.1893 6.84335 16.256C6.84335 15.8827 6.71735 15.5933 6.46535 15.388C6.22268 15.1733 5.84468 15.01 5.33135 14.898L3.90335 14.59C2.99802 14.394 2.30735 14.0813 1.83135 13.652C1.35535 13.2133 1.11735 12.602 1.11735 11.818C1.11735 10.9873 1.43935 10.3247 2.08335 9.83C2.72735 9.326 3.60002 9.074 4.70135 9.074C5.78402 9.074 6.66135 9.354 7.33335 9.914C8.01468 10.474 8.36002 11.2067 8.36935 12.112H6.70335C6.67535 11.636 6.49335 11.258 6.15735 10.978C5.82135 10.698 5.32668 10.558 4.67335 10.558C3.43202 10.558 2.81135 10.978 2.81135 11.818C2.81135 12.4247 3.28735 12.8307 4.23935 13.036L5.56935 13.316C7.54802 13.7267 8.53735 14.6973 8.53735 16.228C8.53735 17.124 8.20602 17.8333 7.54335 18.356C6.89002 18.8693 5.93802 19.126 4.68735 19.126Z" fill="white"/>
<path d="M13.1131 19.126C12.0211 19.126 11.1717 18.79 10.5651 18.118C9.96772 17.4367 9.66905 16.5267 9.66905 15.388C9.66905 14.2493 9.96305 13.344 10.5511 12.672C11.1484 11.9907 11.9884 11.65 13.0711 11.65C14.0417 11.65 14.7931 11.9067 15.3251 12.42C15.8571 12.924 16.1511 13.5867 16.2071 14.408H14.6111C14.5737 13.9973 14.4197 13.6707 14.1491 13.428C13.8784 13.1853 13.5191 13.064 13.0711 13.064C12.4737 13.064 12.0257 13.2693 11.7271 13.68C11.4377 14.0907 11.2931 14.66 11.2931 15.388C11.2931 16.1253 11.4377 16.6993 11.7271 17.11C12.0257 17.5207 12.4737 17.726 13.0711 17.726C13.5191 17.726 13.8784 17.6093 14.1491 17.376C14.4197 17.1333 14.5784 16.802 14.6251 16.382H16.2211C16.1557 17.2127 15.8571 17.88 15.3251 18.384C14.8024 18.8787 14.0651 19.126 13.1131 19.126Z" fill="white"/>
<path d="M17.7876 19V11.776H19.1316L19.2716 12.924H19.3276C19.477 12.5413 19.715 12.238 20.0416 12.014C20.3683 11.79 20.7556 11.678 21.2036 11.678H21.7916V13.162H21.1756C20.569 13.162 20.107 13.3627 19.7896 13.764C19.4816 14.1653 19.3276 14.7347 19.3276 15.472V19H17.7876Z" fill="white"/>
<path d="M26.0323 19.126C24.9217 19.126 24.0723 18.7807 23.4843 18.09C22.9057 17.3993 22.6163 16.4987 22.6163 15.388C22.6163 14.2867 22.9103 13.3907 23.4983 12.7C24.0957 12 24.9403 11.65 26.0323 11.65C27.1243 11.65 27.9643 12 28.5523 12.7C29.1497 13.3907 29.4483 14.2867 29.4483 15.388C29.4483 16.4987 29.1543 17.3993 28.5663 18.09C27.9783 18.7807 27.1337 19.126 26.0323 19.126ZM26.0323 17.712C27.227 17.712 27.8243 16.9373 27.8243 15.388C27.8243 14.6507 27.675 14.0813 27.3763 13.68C27.0777 13.2693 26.6297 13.064 26.0323 13.064C25.435 13.064 24.987 13.2693 24.6883 13.68C24.3897 14.0813 24.2403 14.6507 24.2403 15.388C24.2403 16.1253 24.3897 16.6993 24.6883 17.11C24.9963 17.5113 25.4443 17.712 26.0323 17.712Z" fill="white"/>
<path d="M31.022 19V8.64H32.618V19H31.022Z" fill="white"/>
<path d="M34.522 19V8.64H36.118V19H34.522Z" fill="white"/>
<rect x="50" y="1" width="18" height="26" rx="9" stroke="white" stroke-width="2"/>
<rect x="58" y="7" width="2" height="8" rx="1" fill="white"/>
</svg>
