<svg width="40" height="40" viewBox="0 0 40 40" fill="none" xmlns="http://www.w3.org/2000/svg">
<path d="M20 3.75C11.0398 3.75 3.75 11.0398 3.75 20C3.75 28.9602 11.0398 36.25 20 36.25C28.9602 36.25 36.25 28.9602 36.25 20C36.25 11.0398 28.9602 3.75 20 3.75ZM25.8836 24.1164C26.0046 24.2313 26.1013 24.3693 26.1681 24.5222C26.2349 24.6751 26.2704 24.8398 26.2725 25.0066C26.2747 25.1735 26.2434 25.339 26.1805 25.4936C26.1177 25.6481 26.0245 25.7885 25.9065 25.9065C25.7885 26.0245 25.6481 26.1177 25.4936 26.1805C25.339 26.2434 25.1735 26.2747 25.0066 26.2725C24.8398 26.2704 24.6751 26.2349 24.5222 26.1681C24.3693 26.1013 24.2313 26.0046 24.1164 25.8836L20 21.768L15.8836 25.8836C15.6473 26.1081 15.3326 26.2314 15.0066 26.2273C14.6807 26.2231 14.3692 26.0918 14.1387 25.8613C13.9082 25.6308 13.7769 25.3193 13.7727 24.9934C13.7686 24.6674 13.8919 24.3527 14.1164 24.1164L18.232 20L14.1164 15.8836C13.8919 15.6473 13.7686 15.3326 13.7727 15.0066C13.7769 14.6807 13.9082 14.3692 14.1387 14.1387C14.3692 13.9082 14.6807 13.7769 15.0066 13.7727C15.3326 13.7686 15.6473 13.8919 15.8836 14.1164L20 18.232L24.1164 14.1164C24.3527 13.8919 24.6674 13.7686 24.9934 13.7727C25.3193 13.7769 25.6308 13.9082 25.8613 14.1387C26.0918 14.3692 26.2231 14.6807 26.2273 15.0066C26.2314 15.3326 26.1081 15.6473 25.8836 15.8836L21.768 20L25.8836 24.1164Z" fill="white"/>
</svg>
