<svg width="146" height="19" viewBox="0 0 146 19" fill="none" xmlns="http://www.w3.org/2000/svg">
<path d="M7.4 1.2H0.608V18H7.4C12.488 18 16.088 14.496 16.088 9.6C16.088 4.68 12.488 1.2 7.4 1.2ZM7.184 13.776H5.264V5.448H7.184C9.68 5.448 11.336 7.104 11.336 9.6C11.336 12.072 9.68 13.776 7.184 13.776ZM26.8668 18.432C32.2668 18.432 36.1068 14.76 36.1068 9.624C36.1068 4.464 32.2668 0.792 26.8668 0.792C21.4668 0.792 17.6268 4.488 17.6268 9.624C17.6268 14.736 21.4668 18.432 26.8668 18.432ZM26.8668 14.136C24.3228 14.136 22.4268 12.216 22.4268 9.624C22.4268 7.008 24.3228 5.088 26.8668 5.088C29.4348 5.088 31.2828 6.984 31.2828 9.624C31.2828 12.24 29.4348 14.136 26.8668 14.136ZM43.1636 13.776V1.2H38.4596V18H49.1396V13.776H43.1636ZM62.3456 18H67.4576L60.7136 1.2H56.1776L49.5776 18H54.5456L55.4816 15.288H61.4336L62.3456 18ZM60.3056 11.664H56.6096L58.4336 6.456L60.3056 11.664ZM79.5809 1.2V10.032L73.1249 1.2H69.0689V18H73.5569V8.904L80.2289 18H84.0689V1.2H79.5809ZM91.9113 13.992V11.472H97.4313V7.68H91.9113V5.208H98.0553V1.2H87.3033V18H98.2713V13.992H91.9113ZM106.873 18.432C110.785 18.432 113.593 16.512 113.593 12.84C113.593 9.024 110.377 8.184 107.881 7.56C106.321 7.152 105.049 6.84 105.049 5.88C105.049 5.088 105.841 4.728 106.657 4.728C107.617 4.728 108.409 5.232 108.409 6.312H113.065C113.065 2.88 110.737 0.816 106.705 0.816C102.745 0.816 100.321 2.712 100.321 6.024C100.321 9.84 103.417 10.584 105.841 11.184C107.449 11.568 108.769 11.88 108.769 12.936C108.769 13.848 107.833 14.376 106.873 14.376C105.817 14.376 104.881 13.776 104.881 12.576H100.104C100.104 16.248 102.769 18.432 106.873 18.432ZM116.014 18H120.718V1.2H116.014V18ZM135.096 18H140.208L133.464 1.2H128.928L122.328 18H127.296L128.232 15.288H134.184L135.096 18ZM133.056 11.664H129.36L131.184 6.456L133.056 11.664ZM141.435 18H145.779V13.872H141.435V18Z" fill="#555555"/>
</svg>
